<svg xmlns="http://www.w3.org/2000/svg" width="1000" height="1000" xml:space="preserve"><rect width="100%" height="100%" fill="#fff"/><path style="stroke:none;stroke-width:1;stroke-dasharray:none;stroke-linecap:butt;stroke-dashoffset:0;stroke-linejoin:miter;stroke-miterlimit:4;is-custom-font:none;font-file-url:none;fill:#004dbb;fill-rule:nonzero;opacity:1" vector-effect="non-scaling-stroke" transform="translate(106.06055 106.06055) scale(60.6061)" d="M11 7 6 2a1 1 0 0 1 0-2 1 1 0 0 1 2 0l5 6a1 1 0 0 1 1 1h-1l-5 6a1 1 0 0 1-2 0 1 1 0 0 1 0-2l5-4ZM0 11a1 1 0 0 0 0 2h2l5-6a1 1 0 0 0 1 0L7 6 2 0a1 1 0 0 0-2 0 1 1 0 0 0 0 2l5 5-5 4Z"/></svg>