<svg xmlns="http://www.w3.org/2000/svg" width="1000" height="1000" xml:space="preserve"><rect width="100%" height="100%" fill="#fff"/><path style="stroke:none;stroke-width:1;stroke-dasharray:none;stroke-linecap:butt;stroke-dashoffset:0;stroke-linejoin:miter;stroke-miterlimit:4;is-custom-font:none;font-file-url:none;fill:#004dbb;fill-rule:nonzero;opacity:1" vector-effect="non-scaling-stroke" transform="translate(44.45346 45.329379) scale(1.7766)" d="M225 13A255 255 0 0 0 2 293a251 251 0 0 0 178 208c5 0 6 0 9-3l3-7v-45l-9 2c-11 1-28 1-36-1-12-3-21-8-28-16-7-7-8-9-15-22-8-17-14-24-23-31-14-10-16-14-8-17h10c13 2 26 11 35 25 12 18 22 25 39 27 8 1 19 0 29-3 7-2 7-2 10-13 1-7 6-16 11-21l2-3h-6l-39-9c-17-6-27-12-39-24-22-21-33-52-32-93 1-14 1-18 3-25 4-13 9-23 17-33 5-6 6-8 5-10-2-4-4-17-4-26 0-11 2-22 5-32 3-7 4-7 15-6 13 2 33 10 50 21 7 5 8 5 11 4a250 250 0 0 1 119 0l5 1 9-6c18-10 36-18 50-20 11-1 12-1 14 8l4 15c2 11 1 30-2 38l-2 6 5 5c15 19 21 38 21 65 0 67-30 105-93 118l-17 3h-6l3 4c5 5 9 14 12 22l2 50c0 33 1 45 2 47 2 3 6 5 11 5a225 225 0 0 0 109-66 247 247 0 0 0 69-207A255 255 0 0 0 225 13z"/></svg>