<svg xmlns="http://www.w3.org/2000/svg" viewBox="0 0 695.5 165.6" fill="#004dbb"><path class="cls-1" d="M686 156h-15l2-19h-4l-2 19a4 4 0 0 0 4 5h14a5 5 0 0 0 5-5l2-19h-4zm-48-8v-6h15l-1 6h-14zm19-6a4 4 0 0 0-4-4h-18l-3 23h4l1-8h8l6 8h4v-2l-5-6h2a5 5 0 0 0 4-5zm-40 14h-15l2-19h-4l-2 19a4 4 0 0 0 4 5h14a5 5 0 0 0 5-5l2-19h-4zm-29-14a4 4 0 0 0-4-5h-14a5 5 0 0 0-5 5l-2 14a4 4 0 0 0 4 5h14a5 5 0 0 0 5-5l1-8h-9l-1 4h6l-1 4h-14l1-14h15l-1 2h5zm-62 12-12-17h-5l-2 24h4l2-17 12 17h5l2-24h-4zm-49 2 1-14h15l-2 14h-14zm2-19a5 5 0 0 0-5 5l-1 14a4 4 0 0 0 4 5h14a5 5 0 0 0 5-5l1-14a4 4 0 0 0-4-5h-14zm-22 24h4l3-24h-4zm-9-19a4 4 0 0 0-4-5h-15a5 5 0 0 0-5 5v5a4 4 0 0 0 4 4h14v5h-15v-2h-4v2a4 4 0 0 0 4 5h14a5 5 0 0 0 5-5l1-5a4 4 0 0 0-4-4h-15l1-5h14v2h4zm-35 0a4 4 0 0 0-4-5h-14a5 5 0 0 0-5 5v5a4 4 0 0 0 4 4h14l-1 5h-14v-2h-4v2a4 4 0 0 0 4 5h14a5 5 0 0 0 5-5v-5a4 4 0 0 0-4-4h-14v-5h15v2h4zm-34-4h-21l-2 23h21v-5h-17l1-5h14v-4h-14l1-5h17zm-52 10v-6h15l-1 6h-14zm19-6a4 4 0 0 0-4-4h-18l-3 23h4l1-8h8l6 8h4v-2l-5-6h2a5 5 0 0 0 5-5zm-38 6h-15l1-6h15zm-18-10-2 23h4l1-8h14a5 5 0 0 0 5-5l1-6a4 4 0 0 0-4-4h-19zm-26 9-7-10h-5l-2 24h4l2-17 8 10 10-10-2 17h4l2-24h-4zm-44 9 2-14h14l-1 14h-15zm2-19a5 5 0 0 0-5 5l-1 14a4 4 0 0 0 4 5h14a5 5 0 0 0 5-5l1-14a4 4 0 0 0-4-5h-14zm-16 5v-5h-18a5 5 0 0 0-5 5l-1 14a4 4 0 0 0 4 5h18v-5h-18l1-14h19zm-76 14 1-14h15l-2 14h-14zm2-19a5 5 0 0 0-5 5l-2 14a4 4 0 0 0 4 5h15a5 5 0 0 0 4-5l2-14a4 4 0 0 0-4-5h-14zm-15 0H96l-3 23h21l1-4H98v-5h14v-4H99v-5h17zm-39 19H63l1-14h15zm-17-19-3 24h19a5 5 0 0 0 5-5l1-14a4 4 0 0 0-4-5H61zm-18 24h4l3-24h-4zm-25-6-8-18H5l11 24h3l16-24h-5zM32 26h15l-2 14H31zm-2 25h14l-2 14H28zm25 0h14l-1 14H54zM27 77h14l-1 14H26zm26 0h14l-2 14H51zM4 51h14l-1 14H3zM1 77h15l-2 14H0zm6-51h14l-1 14H5zM219 0h14l-9 91h-14zm301 26h79l-1 14h-65l-6 51h-14l5-51 2-14zM344 77h66l-2 14h-79l1-14 4-37 2-15h79l-1 15h-66zm328 14h-68l1-14 4-37 2-14h68l2-26h15l-3 26-2 14-4 37-1 14h-14zm-53-14h54l4-37h-54zM490 65h-54l-1 12h54zm-66-14h68l1-11h-54l2-15h68l-2 15-1 11-2 14-1 12-1 14h-82l1-14 1-12 2-14zm-170 0h53l2-11h-54zm66 14h-68l-1 12h54l-2 14h-68l2-14 1-12 1-14 2-11 1-15h82l-1 15-1 11-2 14zM135 51h53l2-11h-54zm66 14h-68l-1 12h54l-2 14h-68l2-14 1-12 1-14 2-11 1-15h82l-1 15-1 11-2 14z"/></svg>